/* XPM */
static char *f40b2fa8dbb64558eb8c29dda5e18a709NEtIJjoerbqRfPr[] = {
/* columns rows colors chars-per-pixel */
"64 64 93 2 ",
"   c gray1",
".  c #030304",
"X  c #040405",
"o  c #050507",
"O  c #070709",
"+  c #08080A",
"@  c #09090B",
"#  c #0B0B0E",
"$  c #0C0C10",
"%  c #101014",
"&  c #101015",
"*  c #121217",
"=  c #16161B",
"-  c #16161C",
";  c #18181F",
":  c #1B1B22",
">  c #1D1D25",
",  c #1F1F27",
"<  c #23232D",
"1  c #24242D",
"2  c #262530",
"3  c #2B2B37",
"4  c #2C2C38",
"5  c #2F2F3C",
"6  c #31313E",
"7  c #373746",
"8  c #393948",
"9  c #3B3B4A",
"0  c #434254",
"q  c #444456",
"w  c #47475A",
"e  c #4A4A5D",
"r  c #4D4D62",
"t  c #4F4E64",
"y  c #535268",
"u  c #55556B",
"i  c #57566E",
"p  c #5C5B74",
"a  c #5D5D76",
"s  c #61617B",
"d  c #64637E",
"f  c #666580",
"g  c #6B6B87",
"h  c #6C6B88",
"j  c #6D6C89",
"k  c #6E6D8A",
"l  c #70708E",
"z  c #757494",
"x  c #787797",
"c  c #7B7A9B",
"v  c #7C7C9D",
"b  c #7F7EA0",
"n  c #8383A6",
"m  c #8484A7",
"M  c #8686AA",
"N  c #8887AB",
"B  c #8A8AAF",
"V  c #8B8AAF",
"C  c #908FB6",
"Z  c #9090B6",
"A  c #9392B9",
"S  c #9493BB",
"D  c #9796BF",
"F  c #9897C0",
"G  c #9A99C3",
"H  c #9D9CC5",
"J  c #9D9CC6",
"K  c #9F9EC8",
"L  c #A1A0CC",
"P  c #A2A2CD",
"I  c #A5A4D0",
"U  c #A7A6D3",
"Y  c #A8A7D4",
"T  c #AAA9D7",
"R  c #ABAAD8",
"E  c #AEADDC",
"W  c #AFAEDC",
"Q  c #B4B3E3",
"!  c #B5B4E4",
"~  c #B7B6E6",
"^  c #B8B7E8",
"/  c #B9B8E9",
"(  c #BBBAEC",
")  c #BCBBED",
"_  c #BDBCEF",
"`  c #BFBEF2",
"'  c #C0BFF3",
"]  c #C3C2F6",
"[  c #C4C3F8",
"{  c #C7C6FB",
"}  c #C7C6FC",
"|  c #C8C7FD",
" . c #CAC9FF",
/* pixels */
" . . . . . . . . . . . . . . . . . . . . . . . . . . . . . . . . . . . . . . . . . . . . . . . . . . . . . . . . . . . . . . . .",
" . . . . . . . . . . . . . . . . . . . . . . . . . . . . . . . . . . . . . . . . . . . . . . . . . . . . . . . . . . . . . . . .",
" . . . . . . . . . . . . . . . . . . . . . . . . . . . . . . . . . . . . . . . . . . . . . . . . . . . . . . . . . . . . . . . .",
" . . . . . . . . . . . . . . . . . . . . . . . . . . . . . . . . . . . . . . . . . . . . . . . . . . . . . . . . . . . . . . . .",
" . . . . . . . . . . . . . . . . . . . . . . . . . . . . . . . . . . . . . . . . . . . . . . . . . . . . . . . . . . . . . . . .",
" . . . . . . . . . . . . . . . . . . . . . . . . . . . . . . . . . . . . . . . . . . . . . . . . . . . . . . . . . . . . . . . .",
" . . . . . . . . . . . . . . . . . . . . . . . . . . . . . . . . . . . . . . . . . . . . . . . . . . . . . . . . . . . . . . . .",
" . . . . . . . . . . . . . . . . . . . . . . . . . . . . . . . . . . . . . . . . . . . . . . . . . . . . . . . . . . . . . . . .",
" . . . . . . . . . . . . . . . . . . . . . . . . . . . . . . . . . . . . . . . . . . . . . . . . . . . . . . . . . . . . . . . .",
" . . . . . . . . . . . . . . . . . . . . . . . . . . . . . . . . . . . . . . . . . . . . . . . . . . . . . . . . . . . . . . . .",
" . . . . . . . . . . . . . . . . . . . . . . . . . . . . . . . . .] S d p l !  . . . . . . . . . . . . . . . . . . . . . . . . .",
" . . . . . . . . . . . . . . . . . . . . . . . . . . . . . . .' k =         : E  . . . . . . . . . . . . . . . . . . . . . . . .",
" . . . . . . . . . . . . . . . . . . . . . . . . . . . . .^ a +               4  . . . . . . . . . . . . . . . . . . . . . . . .",
" . . . . . . . . . . . . . . . . . . . . . . . . . . . .P :                 o @ Q  . . . . . . . . . . . . . . . . . . . . . . .",
" . . . . . . . . . . . . . . . . . . . . . . . . . .' d                       - ~  . . . . . . . . . . . . . . . . . . . . . . .",
" . . . . . . . . . . . . . . . . . . . . . . . . .E 1                       + d  . . . . . . . . . . . . . . . . . . . . . . . .",
" . . . . . . . . . . . . . . . . . . . . . . .{ D $                 o # 3 r c '  . . . . . . . . . . . . . . . . . . . . . . . .",
" . . . . . . . . . . . . . . . . . . . . . .} n o                 % b ]  . . . . . . . . . . . . . . . . . . . . . . . . . . . .",
" . . . . . . . . . . . . . . . . . . . . .{ x                   w ~  . . . . . . . . . . . . . . . . . . . . . . . . . . . . . .",
" . . . . . . . . . . . . . . . . . . . .{ c                 + S {  . . . . . . . . . . . . . . . . . . . . . . . . . . . . . . .",
" . . . . . . . . . . . . . . . . . . . .P o               3 Q  . . . . . . . . . . . . . . . . . . . . . . . . . . . . . . . . .",
" . . . . . . . . . . . . . . . . . . ./ :               t ]  . . . . . . . . . . . . . . . . . . . . . . . . . . . . . . . . . .",
" . . . . . . . . . . . . . . . . . . .d               d ]  . . . . . . . . . . . . . . . . . . . . . . . . . . . . . . . . . . .",
" . . . . . . . . . . . . . . . . . .( :             i {  . . . . . . . . . . . . . . . . . . . . . . . . . . . . . . . . . . . .",
" . . . . . . . . . . . . . . . . . .J o           7 ]  . . . . . . . . . . . . . . . . . . . . . . . . . . . . . . . . . . . . .",
" . . . . . . . . . . . . . . . . . .A             M  . . . . . . . . . . . . . . . . . . . . . . . . . . . . . . . . . . . . . .",
" . . . . . . . . . . . . . . . . . .A             9 C P '  . . . . . . . . . . . . . . . . . . . . . . . . . . . . . . . . . . .",
" . . . . . . . . . . . . . . . . . .U +               . + @ + O + + * : 6 u c D ~  . . . . . . . . . . . . . . . . . . . . . . .",
" . . . . . . . . . . . . . . . . . .{ 4                                         * y P {  . . . . . . . . . . . . . . . . . . . .",
" . . . . . . . . . . . . . . . . . . .B                                             o 7 P {  . . . . . . . . . . . . . . . . . .",
" . . . . . . . . . . . . . . . . . . .[ p                                               o k ]  . . . . . . . . . . . . . . . . .",
" . . . . . . . . . . . . . . . . . . . .` g O                                               p ]  . . . . . . . . . . . . . . . .",
" . . . . . . . . . . . . . . . . . . . . . .) d > O                                           z |  . . . . . . . . . . . . . . .",
" . . . . . . . . . . . . . . . . . . . . . . . .] I D D D D D D D N l e 1 +                   O /  . . . . . . . . . . . . . . .",
" . . . . . . . . . . . . . . . . . . . . . . . . . . . .|  . . .{  . . . .{ S 0 +               s  . . . . . . . . . . . . . . .",
" . . . . . . . . . . . . . . . . . . . . . . . . . . . . . . . . . . . . . . .{ P 3             > ]  . . . . . . . . . . . . . .",
" . . . . . . . . . . . . . . . . . . . . . . . . . . . . . . . . . . . . . . . . .` >           O R  . . . . . . . . . . . . . .",
" . . . . . . . . . . . . . . . . . . . . . . . . . . . . . . . . . . . . . . . . . .z             J  . . . . . . . . . . . . . .",
" . . . . . . . . . . . . . . . . . . . . . . . . . . . . . . . . . . . . . . . . . .V             J  . . . . . . . . . . . . . .",
" . . . . . . . . . . . . . . . . . . . . . . . . . . . . . . . . . . . . . . . . . .S             G  . . . . . . . . . . . . . .",
" . . . . . . . . . . . . . . . . . . . . . . . . . . . . . . . . . . . . . . . . . .B             H  . . . . . . . . . . . . . .",
" . . . . . . . . . . . . . . . . . . . . . . . . . . . . . . . . . . . . . . . . . .d             J  . . . . . . . . . . . . . .",
" . . . . . . . . . . . . . . . . .{ R v c P {  . . . . . . . . . . . . . . . . . .[ 2 .         o Y  . . . . . . . . . . . . . .",
" . . . . . . . . . . . . . . . . .Z >     * c [  . . . . . . . . . . . . . . . .| M             , ]  . . . . . . . . . . . . . .",
" . . . . . . . . . . . . . . . .) 5         @ S  . . . . . . . . . . . . . . . .W *             i  . . . . . . . . . . . . . . .",
" . . . . . . . . . . . . . . . .F *           1 '  . . . . . . . . . . . . .| Q >             O H  . . . . . . . . . . . . . . .",
" . . . . . . . . . . . . . . . .I -             y ]  . . . . . . . . . . . .D -               e {  . . . . . . . . . . . . . . .",
" . . . . . . . . . . . . . . . .] 9             . w ^ |  . .| |  . . .{ I t .               + ~  . . . . . . . . . . . . . . . .",
" . . . . . . . . . . . . . . . . .m o               O 9 g M S S n g q :                     v  . . . . . . . . . . . . . . . . .",
" . . . . . . . . . . . . . . . . .] q                                                     p [  . . . . . . . . . . . . . . . . .",
" . . . . . . . . . . . . . . . . . .^ =                                                 i '  . . . . . . . . . . . . . . . . . .",
" . . . . . . . . . . . . . . . . . . .K #                                           + k ] |  . . . . . . . . . . . . . . . . . .",
" . . . . . . . . . . . . . . . . . . .{ K >                                   o   > S {  . . . . . . . . . . . . . . . . . . . .",
" . . . . . . . . . . . . . . . . . . . . .) d +                               - h _  . . . . . . . . . . . . . . . . . . . . . .",
" . . . . . . . . . . . . . . . . . . . . . . .Y p 1 # .               + 1 r B '  . . . . . . . . . . . . . . . . . . . . . . . .",
" . . . . . . . . . . . . . . . . . . . . . . . .| { R D S D S D D D K )  . . . . . . . . . . . . . . . . . . . . . . . . . . . .",
" . . . . . . . . . . . . . . . . . . . . . . . . . . . . . . . .{  . . . . . . . . . . . . . . . . . . . . . . . . . . . . . . .",
" . . . . . . . . . . . . . . . . . . . . . . . . . . . . . . . . . . . . . . . . . . . . . . . . . . . . . . . . . . . . . . . .",
" . . . . . . . . . . . . . . . . . . . . . . . . . . . . . . . . . . . . . . . . . . . . . . . . . . . . . . . . . . . . . . . .",
" . . . . . . . . . . . . . . . . . . . . . . . . . . . . . . . . . . . . . . . . . . . . . . . . . . . . . . . . . . . . . . . .",
" . . . . . . . . . . . . . . . . . . . . . . . . . . . . . . . . . . . . . . . . . . . . . . . . . . . . . . . . . . . . . . . .",
" . . . . . . . . . . . . . . . . . . . . . . . . . . . . . . . . . . . . . . . . . . . . . . . . . . . . . . . . . . . . . . . .",
" . . . . . . . . . . . . . . . . . . . . . . . . . . . . . . . . . . . . . . . . . . . . . . . . . . . . . . . . . . . . . . . .",
" . . . . . . . . . . . . . . . . . . . . . . . . . . . . . . . . . . . . . . . . . . . . . . . . . . . . . . . . . . . . . . . ."
};
