/* XPM */
static char *ef8e6e40e9784d96d9f5119d97b4aee8BFEbbp7rh987ltqa[] = {
/* columns rows colors chars-per-pixel */
"64 64 116 2 ",
"   c black",
".  c #040403",
"X  c #060605",
"o  c #0A0907",
"O  c #0B0A08",
"+  c #0C0B09",
"@  c #0F0F0B",
"#  c #10100C",
"$  c #13130F",
"%  c #161511",
"&  c #181712",
"*  c #191813",
"=  c #1A1914",
"-  c #1C1C16",
";  c #1F1F18",
":  c #212019",
">  c #22211A",
",  c #26251D",
"<  c #29281F",
"1  c #2A2920",
"2  c #2D2C23",
"3  c #312F25",
"4  c #313026",
"5  c #333227",
"6  c #37352A",
"7  c #3B3A2D",
"8  c #3D3B2E",
"9  c #3E3D30",
"0  c #403F31",
"q  c #434133",
"w  c #454335",
"e  c #474537",
"r  c #494738",
"t  c #4B493A",
"y  c #4D4B3B",
"u  c #4E4C3C",
"i  c #545240",
"p  c #565442",
"a  c #575543",
"s  c #595644",
"d  c #5D5B47",
"f  c #5F5C49",
"g  c #605E4A",
"h  c #63604C",
"j  c #63614C",
"k  c #66634E",
"l  c #67644F",
"z  c #67654F",
"x  c #6D6A53",
"c  c #706D56",
"v  c #747058",
"b  c #79765D",
"n  c #7C795F",
"m  c #7E7B60",
"M  c #7F7C61",
"N  c #807C62",
"B  c #848065",
"V  c #8B876A",
"C  c #8C896B",
"Z  c #908C6E",
"A  c #938F71",
"S  c #969172",
"D  c #9B9777",
"F  c #9C9877",
"G  c #9F9B7A",
"H  c #A5A07E",
"J  c #A8A380",
"K  c #A9A481",
"L  c #AAA582",
"P  c #ABA783",
"I  c #ACA783",
"U  c #AFAA85",
"Y  c #B1AC87",
"T  c #B2AD88",
"R  c #B5B08A",
"E  c #B7B28C",
"W  c #B9B48D",
"Q  c #B9B48E",
"!  c #BCB790",
"~  c #C3BE95",
"^  c #C5C097",
"/  c #C7C198",
"(  c #C8C399",
")  c #C9C39A",
"_  c #CAC49A",
"`  c #CFC99E",
"'  c #D0CA9F",
"]  c #D2CCA0",
"[  c #D4CEA2",
"{  c #D6D1A4",
"}  c #D8D3A6",
"|  c #D9D3A6",
" . c #DDD7A9",
".. c #DED8AA",
"X. c #E1DBAC",
"o. c #E2DBAC",
"O. c #E4DEAE",
"+. c #E6E0B0",
"@. c #E9E3B2",
"#. c #EAE3B3",
"$. c #EBE5B4",
"%. c #EDE7B6",
"&. c #EFE9B7",
"*. c #F0E9B7",
"=. c #F0EAB8",
"-. c #F3EDBA",
";. c #F4EDBB",
":. c #F4EEBB",
">. c #F5EEBC",
",. c #F6F0BC",
"<. c #F8F1BE",
"1. c #F9F3BF",
"2. c #FCF5C0",
"3. c #FCF5C1",
"4. c #FEF7C2",
"5. c #FFF8C3",
/* pixels */
"5.5.5.5.5.5.5.5.5.5.5.5.5.5.5.5.5.5.5.5.5.5.5.5.5.5.5.5.5.5.5.5.5.5.5.5.5.5.5.5.5.5.5.5.5.5.5.5.5.5.5.5.5.5.5.5.5.5.5.5.5.5.5.5.",
"5.5.5.5.5.5.5.5.5.5.5.5.5.5.5.5.5.5.5.5.5.5.5.5.5.5.5.5.5.5.5.5.5.5.5.5.5.5.5.5.5.5.5.5.5.5.5.5.5.5.5.5.5.5.5.5.5.5.5.5.5.5.5.5.",
"5.5.5.5.5.5.5.5.5.5.5.5.5.5.5.5.5.5.5.5.5.5.5.5.5.5.5.5.5.5.5.5.5.5.5.5.5.5.5.5.5.5.5.5.5.5.5.5.5.5.5.5.5.5.5.5.5.5.5.5.5.5.5.5.",
"5.5.5.5.5.5.5.5.5.5.5.5.5.5.5.5.5.5.5.5.5.5.5.5.5.5.5.5.5.5.5.5.5.5.5.5.5.5.5.5.5.5.5.5.5.5.5.5.5.5.5.5.5.5.5.5.5.5.5.5.5.5.5.5.",
"5.5.5.5.5.5.5.5.5.5.5.5.5.5.5.5.5.5.5.5.5.5.5.5.5.5.5.5.5.5.5.5.5.5.5.5.5.5.5.5.5.5.5.5.5.5.5.5.5.5.5.5.5.5.5.5.5.5.5.5.5.5.5.5.",
"5.5.5.5.5.5.5.5.5.5.5.5.5.5.5.5.5.5.5.5.5.5.5.5.5.5.5.5.5.5.5.5.5.5.5.5.5.5.5.5.5.5.5.5.5.5.5.5.5.5.5.5.5.5.5.5.5.5.5.5.5.5.5.5.",
"5.5.5.5.5.5.5.5.5.5.5.5.5.5.5.5.5.5.5.5.5.5.5.5.5.5.5.5.5.5.5.5.5.5.5.5.5.5.5.5.5.5.5.5.5.5.5.5.5.5.5.5.5.5.5.5.5.5.5.5.5.5.5.5.",
"5.5.5.5.5.5.5.5.5.5.5.5.5.5.5.5.5.5.5.5.5.5.5.5.5.5.5.5.5.5.5.5.5.5.5.5.5.5.5.5.5.5.5.5.5.5.5.5.5.5.5.5.5.5.5.5.5.5.5.5.5.5.5.5.",
"5.5.5.5.5.5.5.5.5.5.5.5.5.5.5.5.5.5.5.5.5.5.5.5.5.5.5.5.5.5.5.5.5.5.5.5.5.5.5.5.5.5.5.5.5.5.5.5.5.5.5.5.5.5.5.5.5.5.5.5.5.5.5.5.",
"5.5.5.5.5.5.5.5.5.5.5.5.5.5.5.5.5.5.5.5.5.5.5.5.5.5.5.5.5.5.5.5.5.5.5.5.5.5.5.5.5.5.5.5.5.5.5.5.5.5.5.5.5.5.5.5.5.5.5.5.5.5.5.5.",
"5.5.5.5.5.5.5.5.5.5.5.5.5.5.5.5.5.5.5.5.5.5.5.5.5.5.5.5.5.5.5.5.5.5.5.5.5.5.5.5.5.5.5.5.5.5.5.5.5.5.5.5.5.5.5.5.5.5.5.5.5.5.5.5.",
"5.5.5.5.5.5.5.5.5.5.5.5.5.5.5.5.5.5.5.5.5.5.5.5.5.5.5.5.5.5.5.5.5.5.5.5.5.5.5.5.5.5.5.5.5.5.5.5.5.5.5.5.5.5.5.5.5.5.5.5.5.5.5.5.",
"5.5.5.5.5.5.5.5.5.5.5.5.5.5.5.5.5.5.5.5.5.5.5.5.5.5.5.5.5.5.5.5.5.5.5.5.5.5.5.5.5.5.5.5.5.5.5.5.1. .W Y ] ;.5.5.5.5.5.5.5.5.5.5.",
"5.5.5.5.5.5.5.5.5.5.5.5.5.5.5.5.5.5.5.5.5.5.5.5.5.5.5.5.5.5.5.5.5.5.5.5.5.5.5.5.5.5.5.5.5.5.5.5.^ q X   = G >.5.5.5.5.5.5.5.5.5.",
"5.5.5.5.5.5.5.5.5.5.5.5.5.5.5.5.5.5.5.5.5.5.5.5.5.5.5.5.5.5.5.5.5.5.5.5.5.5.5.5.5.5.5.5.5.5.5.>.e         % [ 5.5.5.5.5.5.5.5.5.",
"5.5.5.5.5.5.5.5.5.5.5.5.5.O...5.5.5.5.5.5.5.5.5.5.5.5.5.5.5.5.5.5.5.5.5.5.5.5.5.5.5.5.5.5.5.5.` @           H 5.5.5.5.5.5.5.5.5.",
"5.5.5.5.5.5.5.5.5.5.5.&.m > % i @.5.5.5.5.5.5.5.5.5.5.5.5.5.5.5.5.5.5.5.5.5.5.5.5.5.5.5.5.5.5.H             A 5.5.5.5.5.5.5.5.5.",
"5.5.5.5.5.5.5.5.5.5.5.V o       u 5.5.5.5.5.5.5.5.5.5.5.5.5.5.5.5.5.5.5.5.5.5.5.5.5.5.5.5.5.5.x             D 5.5.5.5.5.5.5.5.5.",
"5.5.5.5.5.5.5.5.5.5.5.r         . [ 5.5.5.5.5.5.5.5.5.5.5.5.5.5.5.5.5.5.5.5.5.5.5.5.5.5.5.5.@.,             W 5.5.5.5.5.5.5.5.5.",
"5.5.5.5.5.5.5.5.5.5.5.8           A 5.5.5.5.5.5.5.5.5.5.5.5.5.5.5.5.5.5.5.5.5.5.5.5.5.5.5.5.Y .           * $.5.5.5.5.5.5.5.5.5.",
"5.5.5.5.5.5.5.5.5.5.5.s           e 5.5.5.5.5.5.5.5.5.5.5.5.5.5.5.5.5.5.5.5.5.5.5.5.5.5.5.5.x             d 5.5.5.5.5.5.5.5.5.5.",
"5.5.5.5.5.5.5.5.5.5.5.Z           @ %.5.5.5.5.5.5.5.5.5.5.5.5.5.5.5.5.5.5.5.5.5.5.5.5.5.5.4.<             T 5.5.5.5.5.5.5.5.5.5.",
"5.5.5.5.5.5.5.5.5.5.5.~ .           R 5.5.5.5.5.5.5.5.5.5.5.5.<. .@.5.5.5.5.5.5.5.5.5.5.5.[ X           % -.5.5.5.5.5.5.5.5.5.5.",
"5.5.5.5.5.5.5.5.5.5.5.-.>           c 5.5.5.5.5.5.5.5.5.4.4...v u f J ,.5.5.5.5.5.5.5.5.5.N             p 5.5.5.5.5.5.5.5.5.5.5.",
"5.5.5.5.5.5.5.5.5.5.5.5.k           2 5.5.5.5.5.5.5.5.5.5...1       X k &.5.5.5.5.5.5.5.4.5             U 5.5.5.5.5.5.5.5.5.5.5.",
"5.5.5.5.5.5.5.5.5.5.5.5.H           o o.5.5.5.5.5.5.5.5.;.q           X A 4.5.5.5.5.5.5.' X           # ;.5.5.5.5.5.5.5.5.5.5.5.",
"5.5.5.5.5.5.5.5.5.5.5.5.| .           ~ 5.5.5.5.5.5.5.4.C               6 <.5.5.5.5.5.5.V             t 5.5.5.5.5.5.5.5.5.5.5.5.",
"5.5.5.5.5.5.5.5.5.5.5.5.5.=           G 5.5.5.5.5.5.5. .%               @ | 5.5.5.5.5.4.w             D 5.5.5.5.5.5.5.5.5.5.5.5.",
"5.5.5.5.5.5.5.5.5.5.5.5.5.w           k 4.5.5.5.5.5.4.h                   ! 5.5.5.5.5.&.#           O ..5.5.5.5.5.5.5.5.5.5.5.5.",
"5.5.5.5.5.5.5.5.5.5.5.5.5.m           2 5.5.5.5.5.5./ +                   F 5.5.5.5.5.L             7 5.5.5.5.5.5.5.5.5.5.5.5.5.",
"5.5.5.5.5.5.5.5.5.5.5.5.5.L           @ -.5.5.5.5.1.9                     h 5.5.5.5.5.p             B 5.5.5.5.5.5.5.5.5.5.5.5.5.",
"5.5.5.5.5.5.5.5.5.5.5.5.5.(             ` 5.5.5.5.L                       1 5.5.5.4.@.=           . | 5.5.5.5.5.5.5.5.5.5.5.5.5.",
"5.5.5.5.5.5.5.5.5.5.5.5.5.=.O           U 5.5.4.2.5                       @ %.4.5.5.L             1 4.4.5.5.5.5.5.5.5.5.5.5.5.5.",
"5.5.5.5.5.5.5.5.5.5.5.5.5.5.,           v 5.5.4.W             X             ~ 4.5.5.k             c 5.5.5.5.5.5.5.5.5.5.5.5.5.5.",
"5.5.5.5.5.5.5.5.5.5.5.5.5.5.s           5 5.5.4.9             y             A 5.5.4.>           . W 5.5.5.5.5.5.5.5.5.5.5.5.5.5.",
"5.5.5.5.5.5.5.5.5.5.5.5.5.5.S           o o.5.( X           # T .           p 5.5.]             ; -.5.5.5.5.5.5.5.5.5.5.5.5.5.5.",
"5.5.5.5.5.5.5.5.5.5.5.5.5.5.]             L 4.g             b ;.%           ; 5.4.m             g 5.5.5.5.5.5.5.5.5.5.5.5.5.5.5.",
"5.5.5.5.5.5.5.5.5.5.5.5.5.5.5.%           g &.@           @ @.5.q           . ..4.3             W 5.5.5.5.5.5.5.5.5.5.5.5.5.5.5.",
"5.5.5.5.5.5.5.5.5.5.5.5.5.5.4.y           = C             k 4.5.N             D ` X           # >.5.5.5.5.5.5.5.5.5.5.5.5.5.5.5.",
"5.5.5.5.5.5.5.5.5.5.5.5.5.5.4.G             >           X ' 5.5.I             u N             y 5.5.5.5.5.5.5.5.5.5.5.5.5.5.5.5.",
"5.5.5.5.5.5.5.5.5.5.5.5.5.5.5.o.O                       8 5.5.5.| #           % 6             D 5.5.5.5.5.5.5.5.5.5.5.5.5.5.5.5.",
"5.5.5.5.5.5.5.5.5.5.5.5.5.5.5.5.9                       G 5.5.5.5.w             X           @ ..5.5.5.5.5.5.5.5.5.5.5.5.5.5.5.5.",
"5.5.5.5.5.5.5.5.5.5.5.5.5.5.5.5.G                     % %.5.5.5.5.C                         w 5.5.5.5.5.5.5.5.5.5.5.5.5.5.5.5.5.",
"5.5.5.5.5.5.5.5.5.5.5.5.5.5.5.5.&.#                   l 5.5.5.5.5.| X                       S 5.5.5.5.5.5.5.5.5.5.5.5.5.5.5.5.5.",
"5.5.5.5.5.5.5.5.5.5.5.5.5.5.5.5.5.z                 X ( 5.5.5.5.5.5.5                     @ o.5.5.5.5.5.5.5.5.5.5.5.5.5.5.5.5.5.",
"5.5.5.5.5.5.5.5.5.5.5.5.5.5.5.5.5.] X               u 5.5.5.5.5.5.5.B                     9 4.5.5.5.5.5.5.5.5.5.5.5.5.5.5.5.5.5.",
"5.5.5.5.5.5.5.5.5.5.5.5.5.5.5.5.5.4.s             + ~ 5.5.5.5.5.5.5. .#                   G 4.5.5.5.5.5.5.5.5.5.5.5.5.5.5.5.5.5.",
"5.5.5.5.5.5.5.5.5.5.5.5.5.5.5.5.5.5.[ ;         X N 4.5.5.5.5.5.5.5.4.f                 & $.4.5.5.5.5.5.5.5.5.5.5.5.5.5.5.5.5.5.",
"5.5.5.5.5.5.5.5.5.5.5.5.5.5.5.5.5.5.4.E 1     # N >.5.5.5.5.5.5.5.5.4.{ @               x 5.5.5.5.5.5.5.5.5.5.5.5.5.5.5.5.5.5.5.",
"5.5.5.5.5.5.5.5.5.5.5.5.5.5.5.5.5.5.4.4.-.] ( @.4.4.5.5.5.5.5.5.5.5.4.4.n X           @ o.5.5.5.5.5.5.5.5.5.5.5.5.5.5.5.5.5.5.5.",
"5.5.5.5.5.5.5.5.5.5.5.5.5.5.5.5.5.5.5.5.5.5.5.5.5.5.5.5.5.5.5.5.5.5.5.5.=.d         o L 5.5.5.5.5.5.5.5.5.5.5.5.5.5.5.5.5.5.5.5.",
"5.5.5.5.5.5.5.5.5.5.5.5.5.5.5.5.5.5.5.5.5.5.5.5.5.5.5.5.5.5.5.5.5.5.5.5.4.=.A e 6 a ~ 4.5.5.5.5.5.5.5.5.5.5.5.5.5.5.5.5.5.5.5.5.",
"5.5.5.5.5.5.5.5.5.5.5.5.5.5.5.5.5.5.5.5.5.5.5.5.5.5.5.5.5.5.5.5.5.5.5.5.5.5.5.+...,.5.5.5.5.5.5.5.5.5.5.5.5.5.5.5.5.5.5.5.5.5.5.",
"5.5.5.5.5.5.5.5.5.5.5.5.5.5.5.5.5.5.5.5.5.5.5.5.5.5.5.5.5.5.5.5.5.5.5.5.5.5.5.5.5.5.5.5.5.5.5.5.5.5.5.5.5.5.5.5.5.5.5.5.5.5.5.5.",
"5.5.5.5.5.5.5.5.5.5.5.5.5.5.5.5.5.5.5.5.5.5.5.5.5.5.5.5.5.5.5.5.5.5.5.5.5.5.5.5.5.5.5.5.5.5.5.5.5.5.5.5.5.5.5.5.5.5.5.5.5.5.5.5.",
"5.5.5.5.5.5.5.5.5.5.5.5.5.5.5.5.5.5.5.5.5.5.5.5.5.5.5.5.5.5.5.5.5.5.5.5.5.5.5.5.5.5.5.5.5.5.5.5.5.5.5.5.5.5.5.5.5.5.5.5.5.5.5.5.",
"5.5.5.5.5.5.5.5.5.5.5.5.5.5.5.5.5.5.5.5.5.5.5.5.5.5.5.5.5.5.5.5.5.5.5.5.5.5.5.5.5.5.5.5.5.5.5.5.5.5.5.5.5.5.5.5.5.5.5.5.5.5.5.5.",
"5.5.5.5.5.5.5.5.5.5.5.5.5.5.5.5.5.5.5.5.5.5.5.5.5.5.5.5.5.5.5.5.5.5.5.5.5.5.5.5.5.5.5.5.5.5.5.5.5.5.5.5.5.5.5.5.5.5.5.5.5.5.5.5.",
"5.5.5.5.5.5.5.5.5.5.5.5.5.5.5.5.5.5.5.5.5.5.5.5.5.5.5.5.5.5.5.5.5.5.5.5.5.5.5.5.5.5.5.5.5.5.5.5.5.5.5.5.5.5.5.5.5.5.5.5.5.5.5.5.",
"5.5.5.5.5.5.5.5.5.5.5.5.5.5.5.5.5.5.5.5.5.5.5.5.5.5.5.5.5.5.5.5.5.5.5.5.5.5.5.5.5.5.5.5.5.5.5.5.5.5.5.5.5.5.5.5.5.5.5.5.5.5.5.5.",
"5.5.5.5.5.5.5.5.5.5.5.5.5.5.5.5.5.5.5.5.5.5.5.5.5.5.5.5.5.5.5.5.5.5.5.5.5.5.5.5.5.5.5.5.5.5.5.5.5.5.5.5.5.5.5.5.5.5.5.5.5.5.5.5.",
"5.5.5.5.5.5.5.5.5.5.5.5.5.5.5.5.5.5.5.5.5.5.5.5.5.5.5.5.5.5.5.5.5.5.5.5.5.5.5.5.5.5.5.5.5.5.5.5.5.5.5.5.5.5.5.5.5.5.5.5.5.5.5.5.",
"5.5.5.5.5.5.5.5.5.5.5.5.5.5.5.5.5.5.5.5.5.5.5.5.5.5.5.5.5.5.5.5.5.5.5.5.5.5.5.5.5.5.5.5.5.5.5.5.5.5.5.5.5.5.5.5.5.5.5.5.5.5.5.5.",
"5.5.5.5.5.5.5.5.5.5.5.5.5.5.5.5.5.5.5.5.5.5.5.5.5.5.5.5.5.5.5.5.5.5.5.5.5.5.5.5.5.5.5.5.5.5.5.5.5.5.5.5.5.5.5.5.5.5.5.5.5.5.5.5."
};
