/* XPM */
static char *_d114866094e4bf9b58f93d0498d7afdSVHCnbJGpOYC6u46[] = {
/* columns rows colors chars-per-pixel */
"64 64 114 2 ",
"   c black",
".  c #040303",
"X  c #070606",
"o  c #090707",
"O  c #0A0808",
"+  c #0E0B0A",
"@  c #0E0B0B",
"#  c #100D0C",
"$  c #130F0F",
"%  c #14100F",
"&  c #161111",
"*  c #181212",
"=  c #1A1414",
"-  c #1D1616",
";  c #1E1717",
":  c #221A1A",
">  c #241C1C",
",  c #281F1F",
"<  c #29201F",
"1  c #2C2221",
"2  c #2E2323",
"3  c #322626",
"4  c #342727",
"5  c #362A29",
"6  c #392B2B",
"7  c #3C2E2D",
"8  c #3D2E2E",
"9  c #3E2F2F",
"0  c #423232",
"q  c #433333",
"w  c #433433",
"e  c #473636",
"r  c #483737",
"t  c #493837",
"y  c #4A3838",
"u  c #4C3A39",
"i  c #4E3C3B",
"p  c #513E3E",
"a  c #564241",
"s  c #594443",
"d  c #5C4646",
"f  c #634C4B",
"g  c #644D4C",
"h  c #68504F",
"j  c #69504F",
"k  c #695050",
"l  c #6D5353",
"z  c #705655",
"x  c #735857",
"c  c #775B5A",
"v  c #7B5E5D",
"b  c #7D5F5E",
"n  c #7E605F",
"m  c #7E6160",
"M  c #836463",
"N  c #886867",
"B  c #896968",
"V  c #8C6B6A",
"C  c #93706F",
"Z  c #967271",
"A  c #977372",
"S  c #9B7776",
"D  c #9F7A78",
"F  c #A17B7A",
"G  c #A37C7B",
"H  c #A47D7C",
"J  c #A7807F",
"K  c #A98280",
"L  c #AB8382",
"P  c #AD8583",
"I  c #B18786",
"U  c #B48A88",
"Y  c #B68B89",
"T  c #B68B8A",
"R  c #BA8E8C",
"E  c #BD918F",
"W  c #BF9290",
"Q  c #C19392",
"!  c #C29493",
"~  c #C39694",
"^  c #C69796",
"/  c #C89997",
"(  c #C99998",
")  c #CB9C9A",
"_  c #CC9C9A",
"`  c #CC9C9B",
"'  c #CF9F9D",
"]  c #D09F9D",
"[  c #D2A19F",
"{  c #D5A3A1",
"}  c #D7A4A2",
"|  c #D9A6A4",
" . c #DCA8A7",
".. c #DDA9A7",
"X. c #DFABA9",
"o. c #E0ABAA",
"O. c #E2ADAB",
"+. c #E3ADAC",
"@. c #E4AEAC",
"#. c #E6B0AE",
"$. c #E7B0AF",
"%. c #E9B3B1",
"&. c #EBB4B2",
"*. c #ECB5B3",
"=. c #F0B7B5",
"-. c #F0B8B6",
";. c #F3BAB8",
":. c #F4BBB9",
">. c #F6BCBA",
",. c #F7BDBB",
"<. c #FABFBE",
"1. c #FBC0BE",
"2. c #FCC0BE",
"3. c #FFC3C1",
/* pixels */
"3.3.3.3.3.3.3.3.3.3.3.3.3.3.3.3.3.3.3.3.3.3.3.3.3.3.3.3.3.3.3.3.3.3.3.3.3.3.3.3.3.3.3.3.3.3.3.3.3.3.3.3.3.3.3.3.3.3.3.3.3.3.3.3.",
"3.3.3.3.3.3.3.3.3.3.3.3.3.3.3.3.3.3.3.3.3.3.3.3.3.3.3.3.3.3.3.3.3.3.3.3.3.3.3.3.3.3.3.3.3.3.3.3.3.3.3.3.3.3.3.3.3.3.3.3.3.3.3.3.",
"3.3.3.3.3.3.3.3.3.3.3.3.3.3.3.3.3.3.3.3.3.3.3.3.3.3.3.3.3.3.3.3.3.3.3.3.3.3.3.3.3.3.3.3.3.3.3.3.3.3.3.3.3.3.3.3.3.3.3.3.3.3.3.3.",
"3.3.3.3.3.3.3.3.3.3.3.3.3.3.3.3.3.3.3.3.3.3.3.3.3.3.3.3.3.3.3.3.3.3.3.3.3.3.3.3.3.3.3.3.3.3.3.3.3.3.3.3.3.3.3.3.3.3.3.3.3.3.3.3.",
"3.3.3.3.3.3.3.3.3.3.3.3.3.3.3.3.3.3.3.3.3.3.3.3.3.3.3.3.3.3.3.3.3.3.3.3.3.3.3.3.3.3.3.3.3.3.3.3.3.3.3.3.3.3.3.3.3.3.3.3.3.3.3.3.",
"3.3.3.3.3.3.3.3.3.3.3.3.3.3.3.3.3.3.3.3.3.3.3.3.3.3.3.3.3.3.3.3.3.3.3.3.3.3.3.3.3.3.3.3.3.3.3.3.3.3.3.3.3.3.3.3.3.3.3.3.3.3.3.3.",
"3.3.3.3.3.3.3.3.3.3.3.3.3.3.3.3.3.3.3.3.3.3.3.3.3.3.3.3.3.3.3.3.3.3.3.3.3.3.3.3.3.3.3.3.3.3.3.3.3.3.3.3.3.3.3.3.3.3.3.3.3.3.3.3.",
"3.3.3.3.3.3.3.3.3.3.3.3.3.3.3.3.3.3.3.3.3.3.3.3.3.3.3.3.3.3.3.3.3.3.3.3.3.3.3.3.3.3.3.3.3.3.3.3.3.3.3.3.3.3.3.3.3.3.3.3.3.3.3.3.",
"3.3.3.3.3.3.3.3.3.3.3.3.3.3.3.3.3.3.3.3.3.3.3.3.3.3.3.3.3.3.3.3.3.3.3.3.3.3.3.3.3.3.3.3.3.3.3.3.3.3.3.3.3.3.3.3.3.3.3.3.3.3.3.3.",
"3.3.3.3.3.3.3.3.3.3.3.3.3.3.3.3.3.3.3.3.3.3.3.3.3.3.3.3.3.3.3.3.3.3.3.3.3.3.3.3.3.3.3.3.3.3.3.3.3.3.3.3.3.3.3.3.3.3.3.3.3.3.3.3.",
"3.3.3.3.3.3.3.3.3.3.3.3.3.3.3.3.3.3.3.3.3.3.3.3.3.3.3.3.3.3.3.3.3.3.3.3.3.3.3.3.3.3.3.3.3.3.3.3.3.3.3.3.3.3.3.3.3.3.3.3.3.3.3.3.",
"3.3.3.3.3.3.3.3.3.3.3.3.3.3.3.3.3.3.3.3.3.3.3.3.3.3.3.3.3.3.3.3.3.3.3.3.3.3.3.3.3.3.3.3.3.3.3.3.3.3.3.3.3.3.3.3.3.3.3.3.3.3.3.3.",
"3.3.3.3.3.3.3.3.3.3.3.3.3.3.3.3.3.3.3.3.3.3.3.3.3.3.3.3.3.3.3.3.3.3.3.3.3.3.3.3.3.3.3.3.3.3.3.3.3.3.3.3.3.3.3.3.3.3.3.3.3.3.3.3.",
"3.3.3.3.3.3.3.3.3.3.3.3.3.3.3.3.3.3.3.3.3.3.3.3.<.| O.3.3.3.3.3.3.3.3.3.3.3.3.3.3.3.3.3.3.3.3.3.3.3.3.3.3.3.3.3.3.3.3.3.3.3.3.3.",
"3.3.3.3.3.3.3.3.3.3.3.3.3.3.3.3.3.3.3.3.3.3.*.c - # & u ( <.3.3.3.3.3.3.3.3.3.3.3.3.3.3.3.3.3.3.3.3.3.3.3.3.3.3.3.3.3.3.3.3.3.3.",
"3.3.3.3.3.3.3.3.3.3.3.3.3.3.3.3.3.3.3.3.3.+.3           = ! 3.3.3.3.3.3.3.3.3.3.3.3.3.3.3.3.3.3.3.3.+.B k M U ;.3.3.3.3.3.3.3.3.",
"3.3.3.3.3.3.3.3.3.3.3.3.3.3.3.3.3.3.3.3.#.1               1 >.3.3.3.3.3.3.3.3.3.3.3.3.3.3.3.3.3.3.` -       3 L 3.3.3.3.3.3.3.3.",
"3.3.3.3.3.3.3.3.3.3.3.3.3.3.3.3.3.3.3.>.p                   D 3.3.3.3.3.3.3.3.3.3.3.3.3.3.3.3.2.| &           u *.3.3.3.3.3.3.3.",
"3.3.3.3.3.3.3.3.3.3.3.3.3.3.3.3.3.3.3.H                     6 3.3.3.3.3.3.3.3.3.3.3.3.3.3.3.3.1.u             1 o.3.3.3.3.3.3.3.",
"3.3.3.3.3.3.3.3.3.3.3.3.3.3.3.3.3.3.X.+                     o  .3.3.3.3.3.3.3.3.3.3.3.3.3.3.3.! X             w =.3.3.3.3.3.3.3.",
"3.3.3.3.3.3.3.3.3.3.3.3.3.3.3.3.3.>.0                         I 3.3.3.3.3.3.3.3.3.3.3.3.3.3.<.0             X P 3.3.3.3.3.3.3.3.",
"3.3.3.3.3.3.3.3.3.3.3.3.3.3.3.3.3.D                           B 3.3.3.3.3.3.3.3.3.3.3.3.3.3.R X             c >.3.3.3.3.3.3.3.3.",
"3.3.3.3.3.3.3.3.3.3.3.3.3.3.3.3.*.#             s &           a 3.3.3.3.3.3.3.3.3.3.3.3.3.<.0             > 1.3.3.3.3.3.3.3.3.3.",
"3.3.3.3.3.3.3.3.3.3.3.3.3.3.3.2.a             - *.6           1 3.3.3.3.3.3.3.3.3.3.3.3.3.U X             A 3.3.3.3.3.3.3.3.3.3.",
"3.3.3.3.3.3.3.3.3.3.3.3.3.3.3.W               R 3.h           # :.3.3.3.3.3.3.3.3.3.3.3.>.5             > *.3.3.3.3.3.3.3.3.3.3.",
"3.3.3.3.3.3.3.3.3.3.3.3.3.3.>.<             g 3.3.Z           o [ 3.3.3.3.3.3.3.3.3.3.3.F               Z 3.3.3.3.3.3.3.3.3.3.3.",
"3.3.3.3.3.3.3.3.3.3.3.3.3.3.F             = ;.3.3.U             ~ 3.3.3.3.3.3.3.3.3.3.>.1             > ;.3.3.3.3.3.3.3.3.3.3.3.",
"3.3.3.3.3.3.3.3.3.3.3.3.3.>.-             P 3.3.3.Q             U 3.3.3.3.3.3.3.3.3.3.H               L 3.3.3.3.3.3.3.3.3.3.3.3.",
"3.3.3.3.3.3.3.3.3.3.3.3.3.C             5 1.3.3.3.'             Z 3.3.3.3.3.3.3.3.3.>.>             5 >.3.3.3.3.3.3.3.3.3.3.3.3.",
"3.3.3.3.3.3.3.3.3.3.3.3.-.>           . ~ 3.3.3.3.-.+           f 3.3.3.3.3.3.3.3.3.C             X R 3.3.3.3.3.3.3.3.3.3.3.3.3.",
"3.3.3.3.3.3.3.3.3.3.3.3.J             i 2.3.3.3.3.3.:           2 3.3.3.3.3.3.3.3.%.=             8 1.3.3.3.3.3.3.3.3.3.3.3.3.3.",
"3.3.3.3.3.3.3.3.3.3.3.3.e           X ) 3.3.3.3.3.3.y           # #.3.3.3.3.3.3.3.m             X U 3.3.3.3.3.3.3.3.3.3.3.3.3.3.",
"3.3.3.3.3.3.3.3.3.3.3.X.o           9 1.3.3.3.3.3.3.m           X ! 3.3.3.3.3.3.o.*             t 2.3.3.3.3.3.3.3.3.3.3.3.3.3.3.",
"3.3.3.3.3.3.3.3.3.3.3.N             P 3.3.3.3.3.3.3.L             G 3.3.3.3.3.3.b             o / 3.3.3.3.3.3.3.3.3.3.3.3.3.3.3.",
"3.3.3.3.3.3.3.3.3.3.3.1           ; 1.3.3.3.3.3.3.3.{             z 3.3.3.3.3.X.&             a 2.3.3.3.3.3.3.3.3.3.3.3.3.3.3.3.",
"3.3.3.3.3.3.3.3.3.3.(             n 3.3.3.3.3.3.3.3.3.&           2 3.3.3.3.3.v             o ` 3.3.3.3.3.3.3.3.3.3.3.3.3.3.3.3.",
"3.3.3.3.3.3.3.3.3.3.x           X | 3.3.3.3.3.3.3.3.3.8           o } 3.3.3.&.&             s 2.3.3.3.3.3.3.3.3.3.3.3.3.3.3.3.3.",
"3.3.3.3.3.3.3.3.3.1.>           5 3.3.3.3.3.3.3.3.3.3.v             H 3.3.3.n             O } 3.3.3.3.3.3.3.3.3.3.3.3.3.3.3.3.3.",
"3.3.3.3.3.3.3.3.3.{             Z 3.3.3.3.3.3.3.3.3.3.I             h 3.3.+.&             a 2.3.3.3.3.3.3.3.3.3.3.3.3.3.3.3.3.3.",
"3.3.3.3.3.3.3.3.3.z           O #.3.3.3.3.3.3.3.3.3.3.+.@           < >.3.M             o ] 3.3.3.3.3.3.3.3.3.3.3.3.3.3.3.3.3.3.",
"3.3.3.3.3.3.3.3.3.-           w 3.3.3.3.3.3.3.3.3.3.3.3.6           X / @.-             d 3.3.3.3.3.3.3.3.3.3.3.3.3.3.3.3.3.3.3.",
"3.3.3.3.3.3.3.3.`             L 3.3.3.3.3.3.3.3.3.3.3.3.c             V B             o ` 3.3.3.3.3.3.3.3.3.3.3.3.3.3.3.3.3.3.3.",
"3.3.3.3.3.3.3.3.l           + 1.3.3.3.3.3.3.3.3.3.3.3.3.T             8 :             a 2.3.3.3.3.3.3.3.3.3.3.3.3.3.3.3.3.3.3.3.",
"3.3.3.3.3.3.3.;.:           a 3.3.3.3.3.3.3.3.3.3.3.3.3.*.&                         X ` 3.3.3.3.3.3.3.3.3.3.3.3.3.3.3.3.3.3.3.3.",
"3.3.3.3.3.3.3.U             J 3.3.3.3.3.3.3.3.3.3.3.3.3.3.a                         t 2.3.3.3.3.3.3.3.3.3.3.3.3.3.3.3.3.3.3.3.3.",
"3.3.3.3.3.3.3.k           # %.3.3.3.3.3.3.3.3.3.3.3.3.3.3.P                       X E 3.3.3.3.3.3.3.3.3.3.3.3.3.3.3.3.3.3.3.3.3.",
"3.3.3.3.3.3.3.>           d 3.3.3.3.3.3.3.3.3.3.3.3.3.3.3.;.>                     r 2.3.3.3.3.3.3.3.3.3.3.3.3.3.3.3.3.3.3.3.3.3.",
"3.3.3.3.3.3.+.O           Q 3.3.3.3.3.3.3.3.3.3.3.3.3.3.3.3.D X                 o ~ 3.3.3.3.3.3.3.3.3.3.3.3.3.3.3.3.3.3.3.3.3.3.",
"3.3.3.3.3.3.~ .         + 1.3.3.3.3.3.3.3.3.3.3.3.3.3.3.3.3.>.s                 g 1.3.3.3.3.3.3.3.3.3.3.3.3.3.3.3.3.3.3.3.3.3.3.",
"3.3.3.3.3.3. .O         8 3.3.3.3.3.3.3.3.3.3.3.3.3.3.3.3.3.3.*.4             1 O.3.3.3.3.3.3.3.3.3.3.3.3.3.3.3.3.3.3.3.3.3.3.3.",
"3.3.3.3.3.3.3.s       # D 3.3.3.3.3.3.3.3.3.3.3.3.3.3.3.3.3.3.3.X.u o     . 6 ( 2.3.3.3.3.3.3.3.3.3.3.3.3.3.3.3.3.3.3.3.3.3.3.3.",
"3.3.3.3.3.3.3.&.l 3 8 S >.3.3.3.3.3.3.3.3.3.3.3.3.3.3.3.3.3.3.3.3.>.{ L G ^ &.3.3.3.3.3.3.3.3.3.3.3.3.3.3.3.3.3.3.3.3.3.3.3.3.3.",
"3.3.3.3.3.3.3.3.3.X.#.3.3.3.3.3.3.3.3.3.3.3.3.3.3.3.3.3.3.3.3.3.3.3.3.3.3.3.3.3.3.3.3.3.3.3.3.3.3.3.3.3.3.3.3.3.3.3.3.3.3.3.3.3.",
"3.3.3.3.3.3.3.3.3.3.3.3.3.3.3.3.3.3.3.3.3.3.3.3.3.3.3.3.3.3.3.3.3.3.3.3.3.3.3.3.3.3.3.3.3.3.3.3.3.3.3.3.3.3.3.3.3.3.3.3.3.3.3.3.",
"3.3.3.3.3.3.3.3.3.3.3.3.3.3.3.3.3.3.3.3.3.3.3.3.3.3.3.3.3.3.3.3.3.3.3.3.3.3.3.3.3.3.3.3.3.3.3.3.3.3.3.3.3.3.3.3.3.3.3.3.3.3.3.3.",
"3.3.3.3.3.3.3.3.3.3.3.3.3.3.3.3.3.3.3.3.3.3.3.3.3.3.3.3.3.3.3.3.3.3.3.3.3.3.3.3.3.3.3.3.3.3.3.3.3.3.3.3.3.3.3.3.3.3.3.3.3.3.3.3.",
"3.3.3.3.3.3.3.3.3.3.3.3.3.3.3.3.3.3.3.3.3.3.3.3.3.3.3.3.3.3.3.3.3.3.3.3.3.3.3.3.3.3.3.3.3.3.3.3.3.3.3.3.3.3.3.3.3.3.3.3.3.3.3.3.",
"3.3.3.3.3.3.3.3.3.3.3.3.3.3.3.3.3.3.3.3.3.3.3.3.3.3.3.3.3.3.3.3.3.3.3.3.3.3.3.3.3.3.3.3.3.3.3.3.3.3.3.3.3.3.3.3.3.3.3.3.3.3.3.3.",
"3.3.3.3.3.3.3.3.3.3.3.3.3.3.3.3.3.3.3.3.3.3.3.3.3.3.3.3.3.3.3.3.3.3.3.3.3.3.3.3.3.3.3.3.3.3.3.3.3.3.3.3.3.3.3.3.3.3.3.3.3.3.3.3.",
"3.3.3.3.3.3.3.3.3.3.3.3.3.3.3.3.3.3.3.3.3.3.3.3.3.3.3.3.3.3.3.3.3.3.3.3.3.3.3.3.3.3.3.3.3.3.3.3.3.3.3.3.3.3.3.3.3.3.3.3.3.3.3.3.",
"3.3.3.3.3.3.3.3.3.3.3.3.3.3.3.3.3.3.3.3.3.3.3.3.3.3.3.3.3.3.3.3.3.3.3.3.3.3.3.3.3.3.3.3.3.3.3.3.3.3.3.3.3.3.3.3.3.3.3.3.3.3.3.3.",
"3.3.3.3.3.3.3.3.3.3.3.3.3.3.3.3.3.3.3.3.3.3.3.3.3.3.3.3.3.3.3.3.3.3.3.3.3.3.3.3.3.3.3.3.3.3.3.3.3.3.3.3.3.3.3.3.3.3.3.3.3.3.3.3.",
"3.3.3.3.3.3.3.3.3.3.3.3.3.3.3.3.3.3.3.3.3.3.3.3.3.3.3.3.3.3.3.3.3.3.3.3.3.3.3.3.3.3.3.3.3.3.3.3.3.3.3.3.3.3.3.3.3.3.3.3.3.3.3.3.",
"3.3.3.3.3.3.3.3.3.3.3.3.3.3.3.3.3.3.3.3.3.3.3.3.3.3.3.3.3.3.3.3.3.3.3.3.3.3.3.3.3.3.3.3.3.3.3.3.3.3.3.3.3.3.3.3.3.3.3.3.3.3.3.3."
};
